# xmcd CD database file
#
# Track frame offsets:
#	150
#	17287
#	45285
#
# Disc length: 676 seconds
#
# Revision: 1
# Processed by: cddbd v1.5.2PL0 Copyright (c) Steve Scherf et al.
# Submitted via: CDex 1.51
#
DISCID=1002a203
DTITLE=Mayane delem - je pars avec toi
DYEAR=2003
DGENRE=Dance
TTITLE0=je pars avec toi
TTITLE1=Quand Sally séndort
TTITLE2=03
EXTD=YEAR: 2003
EXTT0=
EXTT1=
EXTT2=
PLAYORDER=
